<svg xmlns="http://www.w3.org/2000/svg" width="56" height="56" viewBox="0 0 56 56">
  <path d="M21.25,24.17,43.49,48.09a3,3,0,0,1,.55.83l.16.38a3.33,3.33,0,0,0,5.41,1h0a3.32,3.32,0,0,0-1-5.4l-.37-.16a2.76,2.76,0,0,1-.83-.56L27.88,25.58,6.48,5.09,6.28,6a10.19,10.19,0,0,0,1.86,8.43l12.58,16.4a7.12,7.12,0,0,0,8.22,2.36l.5-.19" fill="none" stroke="#000" stroke-width="1.5"/>
  <path d="M47.84,6.08,34.7,18.57a2.17,2.17,0,0,0,0,3.11h0a2.17,2.17,0,0,0,3.12,0L50.26,8.51" fill="none" stroke="#000" stroke-width="1.5"/>
  <path d="M30.83,28.4l2.89-3,.42.41A4.7,4.7,0,0,0,41,25.33L52.17,11.62" fill="none" stroke="#000" stroke-width="1.5"/>
  <path d="M21.47,31.66,8.51,44a2.73,2.73,0,0,1-.83.55l-.37.16a3.32,3.32,0,0,0-1,5.41h0a3.32,3.32,0,0,0,5.4-1l.16-.37a2.73,2.73,0,0,1,.55-.83L25.87,33.62" fill="none" stroke="#000" stroke-width="1.5"/>
  <path d="M44.73,4.17,31,15.33a4.68,4.68,0,0,0-.44,6.87l.41.42-3.11,3" fill="none" stroke="#000" stroke-width="1.5"/>
</svg>
