<?xml version="1.0" standalone="no"?>
<!DOCTYPE svg PUBLIC "-//W3C//DTD SVG 20010904//EN"
 "http://www.w3.org/TR/2001/REC-SVG-20010904/DTD/svg10.dtd">
<svg version="1.0" xmlns="http://www.w3.org/2000/svg"
 width="260.000000pt" height="260.000000pt" viewBox="0 0 260.000000 260.000000"
 preserveAspectRatio="xMidYMid meet">
<metadata>
Created by potrace 1.11, written by Peter Selinger 2001-2013
</metadata>
<g transform="translate(0.000000,260.000000) scale(0.100000,-0.100000)"
fill="#000000" stroke="none">
<path d="M647 2202 c-108 -108 -197 -200 -197 -203 0 -4 91 -97 202 -208 l201
-202 204 203 c112 111 203 204 203 205 0 7 -401 403 -408 403 -4 0 -96 -89
-205 -198z"/>
<path d="M1545 2200 l-200 -200 205 -205 205 -205 204 204 205 205 -200 200
c-109 110 -203 201 -209 201 -5 0 -100 -90 -210 -200z"/>
<path d="M331 1883 c-89 -98 -129 -192 -136 -317 -8 -143 50 -275 174 -394
l34 -34 205 205 204 204 -201 202 c-110 110 -205 201 -210 201 -5 0 -37 -30
-70 -67z"/>
<path d="M1098 1752 c-109 -109 -198 -201 -198 -204 0 -3 91 -97 202 -208
l202 -201 205 205 204 204 -201 201 c-110 111 -204 201 -209 201 -4 0 -97 -89
-205 -198z"/>
<path d="M1996 1749 l-200 -200 205 -205 205 -205 36 35 c110 107 164 216 172
350 8 128 -44 261 -141 364 -32 34 -63 62 -68 62 -6 -1 -100 -91 -209 -201z"/>
<path d="M648 1302 c-109 -109 -198 -201 -198 -204 0 -4 90 -98 201 -209 l201
-202 205 205 205 206 -201 201 c-110 110 -204 201 -208 201 -5 0 -97 -89 -205
-198z"/>
<path d="M1548 1300 c-173 -172 -199 -202 -188 -215 7 -9 98 -101 203 -205
158 -159 192 -188 204 -178 18 15 350 347 377 376 18 21 17 22 -182 221 -111
111 -204 201 -208 201 -3 0 -96 -90 -206 -200z"/>
<path d="M336 989 c-194 -209 -188 -495 14 -700 l51 -53 205 205 205 205 -202
202 c-111 111 -205 202 -209 202 -4 0 -33 -27 -64 -61z"/>
<path d="M1098 851 c-109 -109 -198 -201 -198 -205 0 -3 90 -96 201 -207 l201
-201 45 43 c98 96 340 338 352 352 10 13 -19 46 -188 216 -110 111 -204 201
-208 201 -4 -1 -97 -90 -205 -199z"/>
<path d="M2000 850 c-107 -109 -194 -202 -193 -207 2 -9 350 -362 386 -392 34
-27 170 149 202 261 35 122 18 266 -44 373 -31 53 -132 166 -147 164 -5 0 -97
-90 -204 -199z"/>
</g>
</svg>
